<svg width="32" height="33" viewBox="0 0 32 33" fill="none" xmlns="http://www.w3.org/2000/svg">
<path fill-rule="evenodd" clip-rule="evenodd" d="M15.875 0.5L22.2358 4.13863V6.1393L29.9348 10.5476V18.0884L32 19.2704V26.5517L25.6434 30.1903L22.8212 28.5721L15.9597 32.5L9.13921 28.5948L6.35666 30.1903L0 26.5455V19.2704L1.98466 18.1344V10.5476L9.51839 6.23531L9.52259 6.23513V4.13863L15.875 0.5ZM22.2358 8.03129V11.4158L15.8792 15.0544L9.52259 11.4158V8.12507L9.51839 8.12525L3.63676 11.4936V17.1886L6.35666 15.6318L12.7132 19.2704V26.5455L10.7901 27.6482L15.9597 30.608L21.1704 27.6257L19.2867 26.5455V19.2704L25.6434 15.6318L28.2826 17.1426V11.4936L22.2358 8.03129ZM20.9389 25.6077V21.1665L24.8173 23.3861V27.8274L20.9389 25.6077ZM30.3478 21.1604L26.4694 23.38V27.8274L30.3478 25.6016V21.1604ZM1.65215 25.6016V21.1604L5.53057 23.38V27.8212L1.65215 25.6016ZM11.0611 21.1604L7.18267 23.38V27.8212L11.0611 25.6016V21.1604ZM21.765 19.7475L25.6434 17.5279L29.5217 19.7475L25.6434 21.9692L21.765 19.7475ZM6.35666 17.5217L2.47821 19.7475L6.35666 21.963L10.235 19.7475L6.35666 17.5217ZM11.1747 10.4698V6.02857L15.0489 8.25018V12.6894L11.1747 10.4698ZM20.5795 6.02857L16.7052 8.25018V12.6874L20.5795 10.4698V6.02857ZM12.0008 4.61156L15.875 2.39199L19.7535 4.61156L15.875 6.83122L12.0008 4.61156Z" fill="white"/>
</svg>
